<?xml version="1.0" encoding="UTF-8"?>
<svg version="1.1" xmlns="http://www.w3.org/2000/svg" width="500" height="500">
<path d="M0 0 C1.51770462 -0.00186981 3.03540877 -0.00417119 4.55311215 -0.00686532 C8.71151591 -0.01296859 12.86989951 -0.01285147 17.02830672 -0.01167095 C21.51783669 -0.01146657 26.00736024 -0.01698918 30.49688721 -0.02172852 C39.28766064 -0.03002723 48.07842737 -0.03278299 56.86920439 -0.03334089 C64.01519164 -0.03381636 71.16117668 -0.03587266 78.30716324 -0.03904152 C98.57345299 -0.04784547 118.83973746 -0.05246123 139.10602914 -0.05171105 C140.19809305 -0.05167109 141.29015696 -0.05163113 142.41531372 -0.05158997 C143.50871284 -0.05154909 144.60211196 -0.0515082 145.72864439 -0.05146609 C163.4526048 -0.05105955 181.17654398 -0.06063173 198.90049826 -0.07472833 C217.1053011 -0.08909301 235.31009358 -0.09599849 253.51490223 -0.09513456 C263.73316859 -0.09480265 273.95141267 -0.09754709 284.16967392 -0.10831261 C292.86850149 -0.11741873 301.5672967 -0.11959187 310.26612698 -0.11280318 C314.70277788 -0.10953874 319.13936667 -0.10947863 323.57601166 -0.11815643 C327.64101607 -0.12602547 331.70590916 -0.12458587 335.77091087 -0.1158723 C337.23786603 -0.11433823 338.70482951 -0.11614998 340.17177485 -0.12173238 C353.25294695 -0.1681973 363.24835338 1.73665055 375.134552 7.13371277 C375.96857544 7.48047058 376.80259888 7.82722839 377.66189575 8.18449402 C395.16895506 15.98747831 408.219585 32.63910831 415.134552 50.13371277 C418.53564719 60.80498189 419.71810714 70.71789448 419.64248657 81.92082214 C419.64710953 83.44116052 419.6534717 84.9614944 419.66139555 86.48181915 C419.67792086 90.61068373 419.66992019 94.73917318 419.65745068 98.86803818 C419.64833279 103.33984017 419.66240304 107.81158139 419.67337036 112.28337097 C419.69108881 121.0243038 419.6873455 129.76509868 419.6757198 138.50603676 C419.66665935 145.61460622 419.66547273 152.72313722 419.66981506 159.83171082 C419.670428 160.84625635 419.67104093 161.86080188 419.67167243 162.90609121 C419.67295143 164.96759098 419.67424828 167.02909073 419.6755628 169.09059048 C419.68694905 188.38817406 419.67388564 207.68568144 419.65236133 226.98325253 C419.63449214 243.51521491 419.6375968 260.04706491 419.65603638 276.57902527 C419.6774777 295.81100054 419.68585059 315.04290915 419.67358732 334.27489471 C419.67231322 336.32850137 419.67105574 338.38210804 419.66981506 340.43571472 C419.66888941 341.95104679 419.66888941 341.95104679 419.66794506 343.49699163 C419.66450194 350.59100295 419.67029805 357.68497172 419.67973328 364.77897644 C419.69099096 373.43283313 419.68783435 382.08654482 419.6666103 390.74038506 C419.65615039 395.14953966 419.6518909 399.55845316 419.66520691 403.96760559 C419.67724256 408.01423012 419.67038726 412.06039308 419.6492967 416.10697651 C419.64487741 417.56033536 419.64698975 419.0137343 419.65679985 420.46706676 C419.79565149 442.771807 412.22843893 461.78200193 397.134552 478.13371277 C391.2147105 484.06999828 384.78948336 488.64945923 377.384552 492.50871277 C376.80229858 492.81857117 376.22004517 493.12842957 375.62014771 493.44767761 C363.57662865 499.30289648 350.55555718 500.73080306 337.34744263 500.64164734 C335.82710425 500.6462703 334.30677037 500.65263247 332.78644562 500.66055632 C328.65758104 500.67708163 324.52909159 500.66908096 320.40022659 500.65661144 C315.9284246 500.64749355 311.45668338 500.6615638 306.9848938 500.67253113 C298.24396097 500.69024958 289.50316609 500.68650626 280.76222801 500.67488056 C273.65365855 500.66582012 266.54512755 500.6646335 259.43655396 500.66897583 C258.42200842 500.66958876 257.40746289 500.67020169 256.36217356 500.6708332 C254.30067379 500.6721122 252.23917404 500.67340905 250.17767429 500.67472357 C230.88009071 500.68610981 211.58258333 500.67304641 192.28501225 500.6515221 C175.75304986 500.63365291 159.22119986 500.63675757 142.6892395 500.65519714 C123.45726423 500.67663847 104.22535562 500.68501136 84.99337006 500.67274809 C82.9397634 500.67147399 80.88615673 500.67021651 78.83255005 500.66897583 C77.82232867 500.66835873 76.81210729 500.66774163 75.77127314 500.66710582 C68.67726182 500.6636627 61.58329305 500.66945881 54.48928833 500.67889404 C45.83543164 500.69015172 37.18171995 500.68699511 28.52787971 500.66577107 C24.11872511 500.65531115 19.70981161 500.65105167 15.30065918 500.66436768 C11.25403465 500.67640333 7.20787169 500.66954803 3.16128826 500.64845747 C1.70792941 500.64403818 0.25453047 500.64615052 -1.19880199 500.65596062 C-14.2128654 500.73697586 -27.40778339 498.73124203 -39.052948 492.57121277 C-39.70601929 492.23243103 -40.35909058 491.89364929 -41.0319519 491.54460144 C-58.62009314 481.99827982 -71.95668482 465.53543781 -78.0277667 446.48682404 C-80.51630054 437.00331985 -81.43979656 428.1856084 -81.37338257 418.34660339 C-81.37800553 416.82626502 -81.3843677 415.30593114 -81.39229155 413.78560638 C-81.40881685 409.65674181 -81.40081619 405.52825236 -81.38834667 401.39938736 C-81.37922878 396.92758537 -81.39329903 392.45584414 -81.40426636 387.98405457 C-81.42198481 379.24312173 -81.41824149 370.50232686 -81.40661579 361.76138878 C-81.39755535 354.65281931 -81.39636873 347.54428831 -81.40071106 340.43571472 C-81.40132399 339.42116919 -81.40193692 338.40662366 -81.40256843 337.36133432 C-81.40384743 335.29983456 -81.40514428 333.2383348 -81.4064588 331.17683506 C-81.41784504 311.87925148 -81.40478164 292.58174409 -81.38325733 273.28417301 C-81.36538814 256.75221063 -81.3684928 240.22036062 -81.38693237 223.68840027 C-81.4083737 204.45642499 -81.41674659 185.22451638 -81.40448332 165.99253082 C-81.40320922 163.93892416 -81.40195173 161.88531749 -81.40071106 159.83171082 C-81.40009396 158.82148943 -81.39947686 157.81126805 -81.39884105 156.7704339 C-81.39539793 149.67642259 -81.40119404 142.58245382 -81.41062927 135.4884491 C-81.42188695 126.83459241 -81.41873034 118.18088071 -81.3975063 109.52704048 C-81.38704638 105.11788587 -81.3827869 100.70897237 -81.39610291 96.29981995 C-81.40813856 92.25319542 -81.40128326 88.20703246 -81.3801927 84.16044903 C-81.37577341 82.70709018 -81.37788575 81.25369123 -81.38769585 79.80035877 C-81.46871109 66.78629536 -79.46297726 53.59137737 -73.302948 41.94621277 C-72.96416626 41.29314148 -72.62538452 40.64007019 -72.27633667 39.96720886 C-63.49939593 23.79657482 -49.59664877 12.45504754 -32.865448 5.13371277 C-31.97728394 4.73281433 -31.08911987 4.33191589 -30.17404175 3.91886902 C-20.30886466 -0.31336726 -10.59324015 -0.01237615 0 0 Z " fill="#02CC7A" transform="translate(80.86544799804688,-0.1337127685546875)"/>
<path d="M0 0 C0.33 0 0.66 0 1 0 C1.09796875 1.11375 1.1959375 2.2275 1.296875 3.375 C4.86982398 41.03862402 20.93391787 75.18687268 49.6875 100.125 C55.22289489 104.61930075 61.12427072 108.45551629 67.21362305 112.15869141 C71.23395384 114.64561931 74.54228903 116.83449499 77 121 C78.18564669 128.9578998 76.81454735 137.07495711 75.4453125 144.93359375 C74.81042501 149.30540672 74.82098965 153.5943564 75 158 C80.86675066 158.66003066 83.85623223 156.63984622 88.48046875 153.44140625 C89.17513748 152.97766098 89.86980621 152.51391571 90.58552551 152.03611755 C92.79511811 150.55771703 94.9915352 149.06105045 97.1875 147.5625 C99.39643981 146.07120727 101.60792123 144.58382833 103.8216095 143.09959412 C105.19607833 142.17632186 106.56737458 141.2483051 107.93510437 140.31507874 C112.76326127 137.04723296 115.89247158 135.86015998 121.6875 135.875 C122.68136719 135.87242187 123.67523438 135.86984375 124.69921875 135.8671875 C128 136 128 136 131.51953125 136.48828125 C147.75008286 138.63766477 165.50376356 138.59393288 181 133 C181.61939453 132.78569336 182.23878906 132.57138672 182.87695312 132.35058594 C195.45244941 127.95619838 207.13457706 121.77210624 217.42578125 113.25 C219 112 219 112 220 112 C219.58877306 119.44285302 218.42998525 126.08147666 216 133.125 C215.53968384 134.47525269 215.53968384 134.47525269 215.07006836 135.8527832 C210.43955946 148.93007843 204.19030269 160.56112612 195 171 C194.236875 172.010625 193.47375 173.02125 192.6875 174.0625 C184.76772662 182.71899649 175.2808654 188.61140848 165 194 C163.62714844 194.72703125 163.62714844 194.72703125 162.2265625 195.46875 C140.17629489 206.32834125 113.21026712 207.12959863 89.34130859 203.36376953 C86.58116196 202.93492506 83.81627828 202.54517745 81.05078125 202.15234375 C52.57521459 197.99221267 26.71741248 189.29568762 4 171 C3.22011719 170.39800781 2.44023438 169.79601562 1.63671875 169.17578125 C-15.62411135 155.04213529 -25.97201234 132.18099092 -28.68359375 110.390625 C-30.03649869 94.46412018 -29.83213612 78.5442058 -26 63 C-25.72521893 61.66643555 -25.45584455 60.33174759 -25.19140625 58.99609375 C-21.36532935 40.31428379 -13.68391897 13.68391897 0 0 Z " fill="#FDFEFE" transform="translate(113,204)"/>
<path d="M0 0 C12.32226493 10.49787037 23.53989241 22.12460616 32 36 C32 36.66 32 37.32 32 38 C31.35675781 37.81824219 30.71351563 37.63648438 30.05078125 37.44921875 C-14.54948445 25.04258278 -58.45881764 28.80913789 -99.1953125 51.71484375 C-129.75261654 69.64067334 -151.32328854 101.54050328 -160.66015625 135.39355469 C-161.12829204 137.25709523 -161.56763002 139.12783797 -162 141 C-168.01135643 138.99621452 -170.87163658 132.0437819 -173.80078125 126.73828125 C-185.64245243 102.87114356 -190.61313837 74.89178416 -182.38183594 49.06005859 C-178.06268623 36.4766843 -171.5623871 25.1700927 -163 15 C-162.36835938 14.22269531 -161.73671875 13.44539063 -161.0859375 12.64453125 C-144.82523983 -6.50898717 -121.56037106 -20.19601544 -97 -25 C-96.06929688 -25.20625 -95.13859375 -25.4125 -94.1796875 -25.625 C-60.5344817 -32.37278501 -26.28117104 -21.09694004 0 0 Z " fill="#FDFEFE" transform="translate(327,119)"/>
<path d="M0 0 C0.76183594 0.68964844 1.52367187 1.37929687 2.30859375 2.08984375 C2.91574219 2.60417969 3.52289063 3.11851562 4.1484375 3.6484375 C20.75444163 18.69152359 31.93770989 43.88786074 33.51757812 66.01708984 C33.61185226 69.04439273 33.63774028 72.06112682 33.62109375 75.08984375 C33.6154541 76.1778125 33.60981445 77.26578125 33.60400391 78.38671875 C33.19059146 106.28591899 24.21452128 131.64507582 6.30859375 153.08984375 C5.75171875 153.78722656 5.19484375 154.48460937 4.62109375 155.203125 C-7.84181401 170.47696033 -26.01959977 181.40621133 -43.87890625 189.15234375 C-44.81275146 189.55904297 -45.74659668 189.96574219 -46.70874023 190.38476562 C-47.58344971 190.75279297 -48.45815918 191.12082031 -49.359375 191.5 C-50.14594482 191.83136963 -50.93251465 192.16273926 -51.74291992 192.50415039 C-53.69140625 193.08984375 -53.69140625 193.08984375 -55.69140625 192.08984375 C-55.07394531 191.46980469 -54.45648438 190.84976563 -53.8203125 190.2109375 C-31.61067976 166.98716628 -21.09705598 134.3113899 -21.27172852 102.60473633 C-22.07702159 68.39143287 -36.7224248 38.09296905 -60.69140625 14.08984375 C-76.28620868 -0.12599705 -95.60579243 -9.90755902 -115.69140625 -15.91015625 C-115.69140625 -16.57015625 -115.69140625 -17.23015625 -115.69140625 -17.91015625 C-77.54355556 -31.52696399 -31.26481514 -27.17669666 0 0 Z " fill="#FDFEFE" transform="translate(383.69140625,199.91015625)"/>
<path d="M0 0 C16 0 16 0 22.15625 4.59375 C23.99381401 6.53707309 25.75444469 8.48083454 27.5 10.5 C28.43487424 11.51534936 29.37366574 12.52710639 30.31640625 13.53515625 C32.58516881 15.99103324 34.80811633 18.47562522 37 21 C40.78369481 17.90161726 44.24195811 14.83824213 47.4375 11.1328125 C48.02402344 10.47539062 48.61054688 9.81796875 49.21484375 9.140625 C50.40312418 7.79893418 51.56260389 6.43116518 52.69140625 5.0390625 C54.5 3.0703125 54.5 3.0703125 59 0 C63.95 0 68.9 0 74 0 C74 19.47 74 38.94 74 59 C69.38 59 64.76 59 60 59 C59.67 46.79 59.34 34.58 59 22 C52.07 28.93 45.14 35.86 38 43 C30.125 36.25 30.125 36.25 27.03515625 33.1328125 C26.44355713 32.53871582 25.85195801 31.94461914 25.24243164 31.33251953 C24.5230542 30.60403809 23.80367676 29.87555664 23.0625 29.125 C20.731875 26.77375 18.40125 24.4225 16 22 C15.67 34.21 15.34 46.42 15 59 C10.05 59 5.1 59 0 59 C0 39.53 0 20.06 0 0 Z " fill="#FCFEFD" transform="translate(186,235)"/>
<path d="M0 0 C7.26 0 14.52 0 22 0 C22 9.9 22 19.8 22 30 C27.94 30 33.88 30 40 30 C35.78437974 36.02231465 31.01163133 41.28768434 25.98095703 46.62207031 C21.05013561 51.87726925 16.4677621 57.34314359 12 63 C7.5213361 59.34394784 3.62732725 55.60251004 -0.1171875 51.203125 C-2.20299677 48.76246851 -4.34585592 46.38051176 -6.5 44 C-7.25152344 43.1646875 -8.00304687 42.329375 -8.77734375 41.46875 C-10.2244087 39.8614652 -11.67476693 38.25713732 -13.12890625 36.65625 C-13.76699219 35.9446875 -14.40507812 35.233125 -15.0625 34.5 C-15.63097656 33.8709375 -16.19945312 33.241875 -16.78515625 32.59375 C-18 31 -18 31 -18 29 C-12.06 29 -6.12 29 0 29 C0 19.43 0 9.86 0 0 Z " fill="#FBFEFD" transform="translate(290,235)"/>
</svg>
